<svg width="32" height="32" viewBox="0 0 32 32" fill="none" xmlns="http://www.w3.org/2000/svg">
    <path
        d="M14.5703 2.1582C14.9992 0.806788 16.8651 0.764301 17.3838 2.03125L17.4297 2.1582L19.7959 9.6123C20.1254 10.6506 21.0894 11.3564 22.1787 11.3564H29.9326C31.3318 11.3566 31.9482 13.0848 30.9316 13.9766L30.8281 14.0596L24.4746 18.7861C23.6724 19.3829 23.3078 20.3946 23.5312 21.3564L23.583 21.5479L25.9912 29.1338C26.418 30.4787 24.9321 31.5896 23.7764 30.8672L23.666 30.791L17.4922 26.1992C16.6619 25.5816 15.544 25.5427 14.6777 26.083L14.5078 26.1992L8.33398 30.791C7.20196 31.6331 5.66806 30.5916 5.97363 29.2637L6.00879 29.1338L8.41699 21.5479C8.71937 20.5949 8.42379 19.5602 7.68066 18.9102L7.52539 18.7861L1.17188 14.0596C0.0133613 13.1974 0.623143 11.3566 2.06738 11.3564H9.82129C10.8427 11.3564 11.7544 10.736 12.1357 9.80273L12.2041 9.6123L14.5703 2.1582Z"
        fill="#024B37" stroke="#2F2F2F" />
</svg>