<svg width="24" height="23" viewBox="0 0 24 23" fill="none" xmlns="http://www.w3.org/2000/svg">
    <path
        d="M2.57896 10.9417L2.5789 10.9416C1.6013 9.8856 1.03408 8.47548 1.00148 6.99046C0.968892 5.50538 1.4737 4.06855 2.40501 2.96559C3.33531 1.86383 4.62026 1.17784 5.99912 1.0301C7.37749 0.882413 8.76387 1.28159 9.88283 2.15837C9.88284 2.15838 9.88284 2.15839 9.88285 2.15839L11.3834 3.33425L12.0001 3.81752L12.6169 3.33434L14.1179 2.15847C15.2368 1.28191 16.6231 0.882921 18.0014 1.03071C19.3801 1.17855 20.6649 1.86455 21.5951 2.96623C22.5263 4.06912 23.0311 5.50582 22.9985 6.99076C22.966 8.47565 22.3989 9.88567 21.4214 10.9417L22.1553 11.6209L21.4214 10.9417L12.0002 21.1202L2.57896 10.9417Z"
        stroke="#2F2F2F" stroke-width="2" />
</svg>
    