<svg width="99" height="33" viewBox="0 0 99 33" fill="none" xmlns="http://www.w3.org/2000/svg">
<path d="M0 16.3904V32.7812H49.272H98.5439V16.3904V-0.000442505H49.272H0V16.3904ZM96.8666 16.3559L96.8887 30.9409H49.3271H1.76562V16.3329V1.72491L49.3051 1.74792L96.8335 1.78242L96.8666 16.3559Z" fill="#2F2F2F"/>
<path d="M11.9511 7.07391C11.0683 7.32696 10.5606 7.63753 10.0199 8.27015C8.8502 9.62743 8.86123 11.8704 10.042 13.4807C10.2517 13.7568 11.289 14.907 12.3594 16.0457C13.4408 17.196 14.4009 18.3232 14.5223 18.5763C14.6768 18.9213 14.7319 19.2779 14.7319 20.0371C14.7319 20.9572 14.7099 21.0608 14.4009 21.5209C13.9705 22.1535 13.3746 22.4641 12.4808 22.5216C11.5979 22.5906 10.7151 22.3835 9.94268 21.9579C9.61162 21.7739 9.33574 21.6359 9.32471 21.6589C9.20332 21.8314 8.93848 22.7286 8.93848 22.9241C8.93848 23.7523 10.8807 24.4885 12.7235 24.3504C14.3347 24.2354 15.4492 23.6948 16.1886 22.6826C17.0935 21.4403 17.259 19.1974 16.5748 17.6676C16.2548 16.9544 15.9679 16.6209 14.0146 14.6194C12.1828 12.7331 11.7745 12.25 11.5207 11.6864C11.289 11.1457 11.2448 10.9157 11.3 10.4901C11.4766 9.15584 12.227 8.55771 13.7388 8.58072C14.3457 8.58072 14.8202 8.66123 15.2837 8.83377C15.6368 8.9718 16.001 9.08682 16.0782 9.08682C16.2658 9.08682 16.5527 8.4772 16.5527 8.06311C16.5527 7.76405 16.4755 7.67203 16.1113 7.47649C15.052 6.91288 13.176 6.72884 11.9511 7.07391Z" fill="#2F2F2F"/>
<path d="M24.1891 7.44193L23.7146 7.61447L23.7477 15.6431C23.7698 22.0499 23.8139 23.7178 23.9243 23.8328C24.0346 23.9478 24.796 23.9938 27.1134 24.0168C28.7908 24.0398 30.2805 24.0283 30.424 23.9823C30.7109 23.9133 30.9316 23.4877 31.053 22.7401L31.1302 22.3145H28.4708H25.8223V19.1513V15.9882L27.8197 15.9652C29.817 15.9307 29.8281 15.9307 30.0267 15.6431C30.1371 15.4821 30.2584 15.114 30.3026 14.8034L30.3688 14.2628H28.0956H25.8223V11.6173V8.97175H27.5769C30.435 8.97175 30.6005 8.91424 30.744 7.787L30.8212 7.2464L27.7424 7.2579C25.2816 7.2579 24.5643 7.30391 24.1891 7.44193Z" fill="#2F2F2F"/>
<path d="M38.6561 7.36066C38.5126 7.41817 38.4023 7.52169 38.4023 7.5792C38.4023 7.63671 38.1815 10.1902 37.9167 13.2499C37.2325 20.9564 37.0229 23.7975 37.1222 23.8895C37.1663 23.947 37.5525 23.9816 37.9829 23.9816C39.1306 23.9816 39.0092 24.3611 39.4506 19.4381C39.6382 17.2297 39.7265 15.5388 39.7265 13.825C39.7265 12.3987 39.7706 11.3865 39.8258 11.3865C39.881 11.3865 40.1348 12.0766 40.3886 12.9048C40.6424 13.7445 41.3928 16.16 42.0659 18.2764L43.2908 22.1067L43.8536 22.0262C44.1516 21.9916 44.4826 21.9111 44.5709 21.8651C44.7364 21.7616 46.4579 16.9306 47.5835 13.3994L48.2787 11.2139L48.356 12.9968C48.6318 18.9665 48.9188 23.4639 49.0622 23.8435C49.1174 23.9931 49.2719 24.0391 49.8236 24.0391C50.1988 24.0391 50.6623 23.9816 50.8609 23.9125C51.192 23.786 51.2141 23.763 51.1479 23.3029C51.1148 23.0499 51.0375 22.0837 50.9823 21.1635C50.9161 20.2433 50.8499 19.3116 50.8168 19.0931C50.7506 18.61 50.3754 14.2391 50.2099 12.0191C49.9781 8.90197 49.8788 7.76324 49.8016 7.48718C49.7354 7.22263 49.7133 7.21113 48.8525 7.28014C48.2898 7.31465 47.9366 7.39516 47.8815 7.49869C47.8263 7.5792 47.5725 8.29235 47.2966 9.08601C46.5131 11.398 44.3943 17.5057 44.2509 17.8853C44.0854 18.3454 44.0633 18.2994 43.2467 15.6999C42.5073 13.3189 41.2714 9.64962 40.7196 8.18883L40.3555 7.24563L39.6272 7.25714C39.2299 7.25714 38.7885 7.30314 38.6561 7.36066Z" fill="#2F2F2F"/>
<path d="M58.8173 7.373C58.6738 7.44201 58.5193 7.54553 58.4752 7.61455C58.3759 7.78708 58.3869 23.7523 58.4862 23.9249C58.5745 24.0744 60.2739 24.0514 60.4174 23.9134C60.4946 23.8214 60.4946 7.48802 60.4064 7.34999C60.3291 7.21196 59.1594 7.23497 58.8173 7.373Z" fill="#2F2F2F"/>
<path d="M68.3076 7.34908L68.0317 7.4296L67.9986 14.6071C67.9655 21.6695 68.0096 23.4869 68.1972 23.8204C68.2855 23.947 68.8483 23.993 71.3533 24.016C74.8404 24.062 74.9287 24.0505 75.2156 23.2913C75.5577 22.3481 75.657 22.3827 72.7216 22.3136C71.2981 22.2791 70.1173 22.2331 70.1063 22.2216C70.0842 22.2101 70.0732 19.001 70.0732 15.0787C70.0732 11.1679 70.0401 7.79767 70.007 7.60213C69.9408 7.24556 69.9297 7.24556 69.2566 7.25706C68.8924 7.26856 68.4621 7.30307 68.3076 7.34908Z" fill="#2F2F2F"/>
<path d="M87.9501 7.32683C87.8618 7.34984 87.1004 8.91416 86.2507 10.8466C85.401 12.7559 84.6726 14.3663 84.6285 14.4238C84.5292 14.5503 84.1981 13.8717 82.6532 10.2599L81.4062 7.36134H80.402C79.8503 7.36134 79.3316 7.40735 79.2544 7.45336C79.1551 7.52237 79.3427 7.99397 80.0048 9.32824C81.5607 12.4339 82.8298 15.1024 83.1388 15.8961L83.4257 16.6552V20.1635C83.4257 22.0958 83.4588 23.7522 83.4919 23.8557C83.5471 24.0052 83.7236 24.0397 84.3305 24.0397C85.6217 24.0397 85.5223 24.3733 85.5223 20.1289C85.5223 15.7581 85.412 16.2527 87.2328 12.7674C89.4178 8.60359 89.8261 7.69491 89.5943 7.40735C89.4729 7.25782 88.3694 7.20031 87.9501 7.32683Z" fill="#2F2F2F"/>
</svg>
