<svg width="24" height="24" viewBox="0 0 24 24" fill="none" xmlns="http://www.w3.org/2000/svg">
    <path fill-rule="evenodd" clip-rule="evenodd"
        d="M12 22C17.5228 22 22 17.5228 22 12C22 6.47715 17.5228 2 12 2C6.47715 2 2 6.47715 2 12C2 17.5228 6.47715 22 12 22ZM12 24C18.6274 24 24 18.6274 24 12C24 5.37258 18.6274 0 12 0C5.37258 0 0 5.37258 0 12C0 18.6274 5.37258 24 12 24Z"
        fill="#2F2F2F" />
    <path fill-rule="evenodd" clip-rule="evenodd"
        d="M12 15C14.2091 15 16 13.2091 16 11C16 8.79086 14.2091 7 12 7C9.79086 7 8 8.79086 8 11C8 13.2091 9.79086 15 12 15ZM12 16C14.7614 16 17 13.7614 17 11C17 8.23858 14.7614 6 12 6C9.23858 6 7 8.23858 7 11C7 13.7614 9.23858 16 12 16Z"
        fill="#2F2F2F" />
    <path fill-rule="evenodd" clip-rule="evenodd"
        d="M18.6514 20.1506C17.9054 19.0822 17.0116 18.2002 16.0141 17.5525C14.7595 16.7379 13.3755 16.3164 11.9731 16.3218C10.5706 16.3273 9.18866 16.7595 7.93779 17.584C6.9429 18.2397 6.05293 19.1291 5.31159 20.2039C5.12085 20.4805 4.93994 20.7693 4.76962 21.0696L3.95126 20.2852C4.87774 18.6517 6.08556 17.3228 7.47801 16.4051C8.87046 15.4873 10.4089 15.0061 11.97 15.0001C13.5312 14.994 15.0718 15.4632 16.4685 16.3701C17.8651 17.277 19.0791 18.5964 20.013 20.2227L19.1983 21.0134C19.0263 20.714 18.8438 20.4261 18.6514 20.1506Z"
        fill="#2F2F2F" />
</svg>
    