<svg width="33" height="32" viewBox="0 0 33 32" fill="none" xmlns="http://www.w3.org/2000/svg">
    <path
        d="M15.0732 2.00879C15.5082 0.670132 17.3564 0.62806 17.8799 1.88281L17.9268 2.00879L20.4023 9.62891C20.7371 10.6589 21.6973 11.3564 22.7803 11.3564H30.792C32.1995 11.3564 32.8108 13.1007 31.7793 13.9863L31.6738 14.0693L25.1924 18.7793C24.371 19.3761 23.9973 20.4049 24.2295 21.3799L24.2842 21.5742L26.7598 29.1943C27.1947 30.5332 25.7237 31.6535 24.5625 30.9453L24.4512 30.8711L17.9697 26.1621C17.1483 25.5653 16.0538 25.5276 15.1982 26.0498L15.0303 26.1621L8.54883 30.8711C7.41003 31.6985 5.88988 30.6462 6.2041 29.3232L6.24023 29.1943L8.71582 21.5742C9.02961 20.6085 8.72697 19.5566 7.96582 18.9043L7.80762 18.7793L1.32617 14.0693C0.150633 13.2152 0.754931 11.3564 2.20801 11.3564H10.2197C11.2352 11.3564 12.1422 10.7429 12.5273 9.81738L12.5977 9.62891L15.0732 2.00879Z"
        stroke="#2F2F2F" />
</svg>